<svg id="Слой_1" data-name="Слой 1" xmlns="http://www.w3.org/2000/svg" viewBox="0 0 523.0787 61.88754">
  <defs>
    <style>
      .cls-1 {
        fill: #574582;
      }
    </style>
  </defs>
  <title>404</title>
  <g>
    <path class="cls-1" d="M225.73633,389.53648c-2.73584-1.37549-7.36719-1.64307-7.41357-1.64551-4.41553-.56006-12.12354-2.69971-14.231-10.74756a1.33361,1.33361,0,0,0-1.999-.78955l-11.91016,7.51855a1.33177,1.33177,0,0,0,1.42236,2.252L202.061,379.5233l.05518.14063c2.36279,6.00928,7.99268,9.86768,15.85254,10.86523a23.14171,23.14171,0,0,1,6.61963,1.40869,10.86613,10.86613,0,0,1,5.04834,14.34033,10.27729,10.27729,0,0,1-5.76074,5.709,11.93269,11.93269,0,0,1-8.58154-.66211,10.75224,10.75224,0,0,1-2.60205-17.63623,1.21507,1.21507,0,0,0,.43555-.86084,1.372,1.372,0,0,0-.353-1.01709,1.33571,1.33571,0,0,0-1.88135-.08643c-2.353,2.1499-5.9502,6.87451-3.604,14.36377A13.10761,13.10761,0,0,0,214.145,413.725a14.52072,14.52072,0,0,0,10.74951.55371,12.14766,12.14766,0,0,0,7.13867-6.84375A13.71672,13.71672,0,0,0,225.73633,389.53648Z" transform="translate(-164.1299 -353.18162)"/>
    <path class="cls-1" d="M186.76074,378.67125c.10205-.07861,9.90039-6.44824,11.01709-7.17432a1.33053,1.33053,0,1,0-1.44678-2.2334c-.11084.07227-11.10986,7.24316-11.21924,7.31738a7.71486,7.71486,0,0,0-3.41553,5.11035c-.69287,3.667.877,8.30908,4.6665,13.79736.03564.05176,3.39551,5.51611.62061,10.74414a10.75237,10.75237,0,0,1-14.05762,5.14014,10.04979,10.04979,0,0,1-5.61621-5.81494,11.36717,11.36717,0,0,1,.56689-8.5293,10.89446,10.89446,0,0,1,11.67529-5.91992,1.33075,1.33075,0,1,0,.49414-2.61523,13.22906,13.22906,0,0,0-2.45117-.229,13.52335,13.52335,0,0,0-12.12061,7.6167,14.92335,14.92335,0,0,0-.5376,11.001,11.95539,11.95539,0,0,0,6.83057,6.88818c2.686,1.16357,11.91553,4.146,17.90234-6.30273,3.6582-6.38428-.91846-13.20459-1.11475-13.4917C181.06738,383.13365,185.20361,379.89146,186.76074,378.67125Z" transform="translate(-164.1299 -353.18162)"/>
    <path class="cls-1" d="M210.561,377.06236a6.70606,6.70606,0,0,0-.28174-13.40576q-.14575,0-.29248.00635a6.703,6.703,0,0,0-4.24463,11.63721A6.6281,6.6281,0,0,0,210.561,377.06236ZM207.32861,367.66a3.99652,3.99652,0,1,1,3.11621,6.69727c-.05859.00244-.11719.00342-.17529.00342a3.99646,3.99646,0,0,1-2.94092-6.70068Z" transform="translate(-164.1299 -353.18162)"/>
  </g>
  <g>
    <g>
      <path class="cls-1" d="M418.19829,386.38947c.4976,3.02645,2.46464,5.6991,5.84489,7.9478.33987.23934,8.844,6.38381,4.73474,18.715a1.37916,1.37916,0,0,0,.88276,1.763,1.35085,1.35085,0,0,0,1.761-.88276c4.78748-14.36044-5.70508-21.82656-5.81405-21.90021-2.73087-1.81775-4.29187-3.86442-4.66109-6.09569a7.77583,7.77583,0,0,1,1.32016-5.4,1.58728,1.58728,0,0,0,.11246-.17515l6.35992-11.4624c4.40682,2.77415,18.31445,10.9225,29.50068,11.2335h.002a6.26127,6.26127,0,1,0-5.53589-3.34543c-10.43184-2.286-23.53883-10.922-23.69259-11.025a1.39278,1.39278,0,0,0-1.98844.48566l-7.03866,12.685a10.4951,10.4951,0,0,0-1.7879,7.45666ZM461.624,374.60811a3.37215,3.37215,0,0,1-4.11671,2.65921,3.46529,3.46529,0,1,1,1.456-6.77591,3.45248,3.45248,0,0,1,2.6607,4.1167Zm0,0" transform="translate(-164.1299 -353.18162)"/>
      <path class="cls-1" d="M404.80915,412.14267a1.52172,1.52172,0,0,0-.32842,2.0138,1.39879,1.39879,0,0,0,2.078.15526c.4782-.36176,11.50518-9.30477,16.952-16.427a1.39366,1.39366,0,0,0-2.21435-1.69287c-5.2443,6.85753-16.37428,15.85926-16.48724,15.95083Zm0,0" transform="translate(-164.1299 -353.18162)"/>
    </g>
    <path class="cls-1" d="M427.62944,390.858a1.40773,1.40773,0,0,0,1.866-.63943l5.42293-11.08123a50.00458,50.00458,0,0,0,23.31392,6.554,1.39255,1.39255,0,1,0,.002-2.7851c-.12639,0-12.73378-.09752-23.11934-6.93565a1.39531,1.39531,0,0,0-2.01979.55035l-6.10316,12.473a1.38136,1.38136,0,0,0,.63744,1.864Zm0,0" transform="translate(-164.1299 -353.18162)"/>
    <path class="cls-1" d="M429.55369,359.79084a6.60972,6.60972,0,1,0,6.60872-6.60922,6.61739,6.61739,0,0,0-6.60872,6.60922Zm10.35821,0a3.74848,3.74848,0,1,1-3.74948-3.748,3.75392,3.75392,0,0,1,3.74948,3.748Zm0,0" transform="translate(-164.1299 -353.18162)"/>
  </g>
  <g>
    <path class="cls-1" d="M660.82109,388.35225a1.37356,1.37356,0,0,1-1.81545.2148,1.26113,1.26113,0,0,1-.21666-1.81544l10.10372-12.83153c-1.754-1.87135-10.85947-8.80425-35.31773-7.557a1.28211,1.28211,0,0,1-1.30084-1.28514,1.3183,1.3183,0,0,1,1.28653-1.30085c30.10788-1.75585,37.9305,9.19737,38.12358,9.5928a1.2959,1.2959,0,0,1-.14457,1.36922l-10.71857,13.61313Zm0,0" transform="translate(-164.1299 -353.18162)"/>
    <path class="cls-1" d="M668.52269,413.79908a1.37759,1.37759,0,0,1-1.82794.08315,1.31376,1.31376,0,0,1-.085-1.82791c1.9776-2.16746,6.77214-8.73914,5.22416-13.0662-.87355-2.44693-3.74086-4.042-8.51924-4.73681-7.169-1.04492-11.45815-3.34543-12.74468-6.841-1.572-4.26564,2.01363-8.42131,2.14529-8.57145l6.46726-7.76071a1.29341,1.29341,0,1,1,1.98683,1.65654l-6.48527,7.78242c-.02911.0328-2.73012,3.19207-1.68381,6.00716.9276,2.49729,4.62317,4.28226,10.68623,5.16642,5.8016.84629,9.36183,3.00775,10.58506,6.42754,2.38,6.66407-5.41679,15.31633-5.74892,15.68081Zm0,0" transform="translate(-164.1299 -353.18162)"/>
    <g>
      <path class="cls-1" d="M637.42762,412.25109a1.261,1.261,0,0,1-1.92356-.03094,1.29087,1.29087,0,0,1,.11549-1.81869l17.3683-16.99828a1.29326,1.29326,0,1,1,1.8099,1.8478l-17.37014,17.00011Zm0,0" transform="translate(-164.1299 -353.18162)"/>
      <path class="cls-1" d="M685.10753,379.02876c-1.26851,1.178-3.93211,3.22626-11.65863.57559a1.2935,1.2935,0,1,1,.801-2.45988c4.39773,1.42928,7.54083,1.42742,9.09114-.00508,1.97066-1.82284,1.08972-5.61035,1.07726-5.6644a1.29383,1.29383,0,0,1,2.51345-.61531c.05265.2148,1.26157,5.29992-1.82422,8.16907Zm0,0" transform="translate(-164.1299 -353.18162)"/>
    </g>
    <path class="cls-1" d="M669.4646,367.33918a5.97459,5.97459,0,1,0-5.973-5.97482,5.98208,5.98208,0,0,0,5.973,5.97482Zm0-9.36182a3.387,3.387,0,1,1-3.387,3.387,3.39117,3.39117,0,0,1,3.387-3.387Zm0,0" transform="translate(-164.1299 -353.18162)"/>
  </g>
</svg>
