<svg id="Слой_1" data-name="Слой 1" xmlns="http://www.w3.org/2000/svg" viewBox="0 0 17.707 17.707">
  <defs>
    <style>
      .cls-1 {
        fill: #8b8b8b;
      }
    </style>
  </defs>
  <title>Часы работы</title>
  <g>
    <path class="cls-1" d="M298.14643,413.183A8.8535,8.8535,0,1,0,307,422.03643a8.85343,8.85343,0,0,0-8.85357-8.85343Zm0,16.44234a7.58881,7.58881,0,1,1,7.58886-7.58891,7.58887,7.58887,0,0,1-7.58886,7.58891Zm0,0" transform="translate(-289.293 -413.183)"/>
    <path class="cls-1" d="M298.14643,416.34493a.63243.63243,0,0,0-.63238.63252v4.42665h-4.4266a.63242.63242,0,1,0,0,1.26485h5.059a.63246.63246,0,0,0,.63252-.63252v-5.059a.63246.63246,0,0,0-.63252-.63252Zm0,0" transform="translate(-289.293 -413.183)"/>
  </g>
</svg>
