<svg id="Слой_1" data-name="Слой 1" xmlns="http://www.w3.org/2000/svg" viewBox="0 0 6.54008 12.94541">
  <defs>
    <style>
      .cls-1 {
        fill: #999baf;
      }
    </style>
  </defs>
  <title>faceb</title>
  <path class="cls-1" d="M8.269,7.95132a.21708.21708,0,0,1,.05238.1641L8.07349,10.266a.21119.21119,0,0,1-.20949.185H6.23365v5.81282a.21009.21009,0,0,1-.20949.20949H3.61872a.20709.20709,0,0,1-.206-.20822V10.42306H1.99185a.21009.21009,0,0,1-.20949-.20949V8.09093a.21009.21009,0,0,1,.20949-.20949H3.48259V6.30691a2.22392,2.22392,0,0,1,.74014-1.97952,3.25025,3.25025,0,0,1,2.11917-.79947c.0384,0,.06633.00348.07679.00348H8.11192a.21009.21009,0,0,1,.20949.20949V5.71341a.21009.21009,0,0,1-.20949.20949H6.883c-.4294,0-.64936.206-.64936.611V7.88144H8.11189A.22577.22577,0,0,1,8.269,7.95132Z" transform="translate(-1.78236 -3.52792)"/>
</svg>
