<svg id="Layer_1" data-name="Layer 1" xmlns="http://www.w3.org/2000/svg" viewBox="0 0 28.1001 28.09912">
  <defs>
    <style>
      .cls-1 {
        fill: #d61d44;
      }
    </style>
  </defs>
  <title>Как нас найти</title>
  <g>
    <path class="cls-1" d="M229.22217,264.43945l-6.80127-6.80078A11.85186,11.85186,0,1,0,220.811,259.248l6.80176,6.80176a1.13835,1.13835,0,1,0,1.60938-1.61035Zm-6.37354-14.32129a9.55786,9.55786,0,1,1-9.55762-9.55762A9.568,9.568,0,0,1,222.84863,250.11816Z" transform="translate(-201.45605 -238.28369)"/>
    <path class="cls-1" d="M213.29,244.37793a4.21078,4.21078,0,0,0-4.20654,4.20605c0,3.4751,3.2627,6.80127,3.40186,6.94141a1.1411,1.1411,0,0,0,1.60986-.00049c.13916-.13867,3.40283-3.44287,3.40283-6.94092A4.21172,4.21172,0,0,0,213.29,244.37793Zm1.93115,4.20605a8.0682,8.0682,0,0,1-1.93359,4.3999c-.61035-.78418-1.92725-2.67627-1.92725-4.3999a1.93042,1.93042,0,0,1,3.86084,0Z" transform="translate(-201.45605 -238.28369)"/>
  </g>
</svg>
