<svg id="Capa_1" data-name="Capa 1" xmlns="http://www.w3.org/2000/svg" viewBox="0 0 14.58803 14.58803">
  <defs>
    <style>
      .cls-1 {
        fill: #999baf;
      }
    </style>
  </defs>
  <title>inst</title>
  <g>
    <path class="cls-1" d="M258.10044,262.338H251.9876a4.24239,4.24239,0,0,1-4.2376-4.2376V251.9876a4.24239,4.24239,0,0,1,4.2376-4.2376h6.11287a4.24239,4.24239,0,0,1,4.23757,4.2376v6.11287A4.24239,4.24239,0,0,1,258.10044,262.338Zm-6.11284-13.44834a3.10141,3.10141,0,0,0-3.09791,3.0979v6.11287a3.10141,3.10141,0,0,0,3.09791,3.09788h6.11287a3.1014,3.1014,0,0,0,3.09787-3.09791V251.9876a3.1014,3.1014,0,0,0-3.0979-3.0979Z" transform="translate(-247.75 -247.75)"/>
    <path class="cls-1" d="M255.044,258.97595a3.93193,3.93193,0,1,1,3.93193-3.93193A3.93636,3.93636,0,0,1,255.044,258.97595Zm0-6.72417a2.79224,2.79224,0,1,0,2.79224,2.79224A2.79542,2.79542,0,0,0,255.044,252.25178Z" transform="translate(-247.75 -247.75)"/>
    <circle class="cls-1" cx="11.28293" cy="3.3051" r="0.56985"/>
  </g>
</svg>
