<svg id="Слой_1" data-name="Слой 1" xmlns="http://www.w3.org/2000/svg" viewBox="0 0 15.99697 20.75666">
  <defs>
    <style>
      .cls-1 {
        fill: #8b8b8b;
      }
    </style>
  </defs>
  <title>Адрес</title>
  <path class="cls-1" d="M289.85755,399.88144a8.00832,8.00832,0,0,0-7.99854,7.99986,14.183,14.183,0,0,0,3.81583,9.21978,20.22142,20.22142,0,0,0,3.79014,3.42038.71817.71817,0,0,0,.78468,0,20.22356,20.22356,0,0,0,3.79061-3.42038,14.18339,14.18339,0,0,0,3.81571-9.21978,8.00821,8.00821,0,0,0-7.99842-7.99986Zm-.001,19.15969c-1.471-1.09277-6.56351-5.30069-6.56351-11.15984a6.56441,6.56441,0,1,1,13.12882,0c0,5.84552-5.09478,10.06468-6.56531,11.15984Zm0,0" transform="translate(-281.85901 -399.88144)"/>
</svg>
