<svg id="Layer_1" data-name="Layer 1" xmlns="http://www.w3.org/2000/svg" viewBox="0 0 26.63525 18.96862">
  <defs>
    <style>
      .cls-1 {
        fill: #d61d44;
      }
    </style>
  </defs>
  <title>На главную</title>
  <path class="cls-1" d="M262.417,251.68262H246.31348l2.80957-3.14941a1.21084,1.21084,0,0,0-.09717-1.71,1.18443,1.18443,0,0,0-.875-.30518,1.2013,1.2013,0,0,0-.835.40283l-4.11279,4.61035a2.04508,2.04508,0,0,0,0,2.7251l4.11279,4.61084a1.24686,1.24686,0,0,0,1.71045.09668,1.2133,1.2133,0,0,0,.09668-1.71l-2.80908-3.14941h16.104a4.47852,4.47852,0,0,1,0,8.957h-3.06738a1.21143,1.21143,0,1,0,0,2.42285H262.418a6.90088,6.90088,0,0,0-.001-13.80176Zm-13.76874,6.85828.00006-.00006.00012.00018Z" transform="translate(-242.68311 -246.51576)"/>
</svg>
