<svg id="Слой_1" data-name="Слой 1" xmlns="http://www.w3.org/2000/svg" viewBox="0 0 18.50041 18.58303">
  <defs>
    <style>
      .cls-1 {
        fill: #fff;
      }
    </style>
  </defs>
  <title>Телефон</title>
  <path class="cls-1" d="M292.364,434.03544a1.94056,1.94056,0,0,0-1.40722-.6452,2.00585,2.00585,0,0,0-1.42366.64114l-1.31532,1.31126c-.10834-.05833-.21647-.1124-.32054-.16646-.15-.075-.29151-.14575-.41223-.22074a14.29756,14.29756,0,0,1-3.42607-3.12217,8.44725,8.44725,0,0,1-1.12409-1.77334c.34151-.31222.65779-.637.96595-.94924.11646-.11646.23312-.23718.34963-.3539a1.90988,1.90988,0,0,0,0-2.88067l-1.13647-1.13647c-.1291-.129-.26221-.26221-.38725-.39532-.24962-.25815-.512-.52463-.78257-.77446a1.97019,1.97019,0,0,0-1.39462-.61184,2.03918,2.03918,0,0,0-1.41533.61184l-.00832.00833-1.41534,1.42793a3.0464,3.0464,0,0,0-.90335,1.93575,7.29805,7.29805,0,0,0,.5328,3.08882,17.92788,17.92788,0,0,0,3.18457,5.312,19.593,19.593,0,0,0,6.52342,5.10788,10.16547,10.16547,0,0,0,3.6633,1.08241c.08737.00406.17906.00812.26221.00812a3.13627,3.13627,0,0,0,2.402-1.0324c.00427-.00832.01259-.01238.01665-.02071a9.47386,9.47386,0,0,1,.72851-.75354c.17911-.17073.36222-.34958.54133-.537a2.07684,2.07684,0,0,0,.6285-1.44036,2.00016,2.00016,0,0,0-.64114-1.42772Zm1.49016,4.38343c-.00406,0-.00406.00427,0,0-.1622.175-.32866.33319-.50777.508a10.97644,10.97644,0,0,0-.80349.83258,2.00626,2.00626,0,0,1-1.56515.66185c-.06239,0-.1291,0-.19149-.00406a9.03154,9.03154,0,0,1-3.24716-.97407,18.49492,18.49492,0,0,1-6.14434-4.81236,16.90273,16.90273,0,0,1-2.99739-4.99142,5.94628,5.94628,0,0,1-.4663-2.60587,1.9114,1.9114,0,0,1,.57464-1.23643l1.41939-1.41965a.94688.94688,0,0,1,.63281-.29551.89024.89024,0,0,1,.60773.29146l.01259.01238c.25388.23744.49538.483.74927.74521.12905.13331.26221.26648.39553.4039l1.13647,1.13642a.79449.79449,0,0,1,0,1.29055c-.12072.12072-.23718.2415-.358.358-.34979.358-.68277.69109-1.045,1.01575-.00833.00833-.01665.01259-.02071.02092a.84833.84833,0,0,0-.21647.94477l.01238.03762a9.127,9.127,0,0,0,1.34462,2.19385l.00427.00406a15.27741,15.27741,0,0,0,3.6966,3.36367,5.64571,5.64571,0,0,0,.512.27886c.14981.075.29145.14575.41223.22074.01644.00833.0331.02076.0498.02909a.90366.90366,0,0,0,.41223.10407.89007.89007,0,0,0,.63276-.28724l1.42366-1.42366a.94085.94085,0,0,1,.6285-.31222.84774.84774,0,0,1,.59966.30389l.00812.00833,2.29386,2.29365a.82312.82312,0,0,1,.00406,1.30294Zm0,0" transform="translate(-276.79008 -422.95802)"/>
</svg>
