<svg id="Слой_1" data-name="Слой 1" xmlns="http://www.w3.org/2000/svg" viewBox="0 0 18.30254 10.36797">
  <defs>
    <style>
      .cls-1 {
        fill: #999baf;
      }
    </style>
  </defs>
  <title>vk</title>
  <path class="cls-1" d="M24.28818,11.42079a24.97372,24.97372,0,0,1,1.79253,1.80282,5.23911,5.23911,0,0,1,.64246.92584c.24693.47829.02323,1.00476-.40576,1.03326l-2.66643-.0012a2.05711,2.05711,0,0,1-1.69744-.69c-.36907-.37584-.71116-.776-1.06618-1.1648a2.52142,2.52142,0,0,0-.47972-.42658.55734.55734,0,0,0-.888.2158,2.8037,2.8037,0,0,0-.28068,1.244c-.02849.6278-.21821.79279-.84887.8216a6.81852,6.81852,0,0,1-3.81539-.82039,8.42629,8.42629,0,0,1-2.56714-2.40357A32.35039,32.35039,0,0,1,8.62883,5.935c-.2134-.47444-.0572-.72935.46664-.73845.86969-.017,1.73939-.01586,2.61029-.00113a.76657.76657,0,0,1,.72409.54174,16.17992,16.17992,0,0,0,1.76938,3.2786,2.78918,2.78918,0,0,0,.66832.73461.40609.40609,0,0,0,.69-.20288,2.278,2.278,0,0,0,.15357-.68733,10.26589,10.26589,0,0,0-.04284-2.41041,1.00436,1.00436,0,0,0-.85564-.919c-.25489-.04848-.217-.14335-.09336-.28864a.95823.95823,0,0,1,.81745-.407h3.01348c.47444.09365.57992.30653.64479.78393l.00263,3.34737c-.00526.18471.09223.73313.42515.85526.26632.08727.44191-.1259.60164-.29473a10.38142,10.38142,0,0,0,1.69654-2.608c.20408-.41192.37968-.83977.5497-1.26725a.64524.64524,0,0,1,.68125-.46656l2.90035.00263a1.517,1.517,0,0,1,.2561.01556c.48889.08314.62277.2933.47185.77077a7.2353,7.2353,0,0,1-1.15312,1.99932c-.48354.66945-1.00092,1.31574-1.48041,1.989-.44071.61449-.40583.92456.14154,1.45841Z" transform="translate(-8.53637 -4.83453)"/>
</svg>
