<svg id="Слой_1" data-name="Слой 1" xmlns="http://www.w3.org/2000/svg" viewBox="0 0 26.54419 14.46387">
  <defs>
    <style>
      .cls-1 {
        fill: #fff;
      }
    </style>
  </defs>
  <title>Стрелка розовая влево</title>
  <path class="cls-1" d="M313.03418,419.47838H291.83887l3.95264-3.95361a1.213,1.213,0,0,0,.00049-1.71631,1.24238,1.24238,0,0,0-1.7168,0l-6.01807,6.02441a1.21418,1.21418,0,0,0,0,1.71631l6.0249,6.02539a1.22365,1.22365,0,0,0,.85742.35352,1.23917,1.23917,0,0,0,.85889-.35449,1.2161,1.2161,0,0,0-.00049-1.7168l-3.958-3.9541h21.19434a1.21216,1.21216,0,0,0,0-2.42432Z" transform="translate(-287.7019 -413.46422)"/>
</svg>
