<svg id="Слой_1" data-name="Слой 1" xmlns="http://www.w3.org/2000/svg" viewBox="0 0 19.33336 13.47531">
  <defs>
    <style>
      .cls-1 {
        fill: #9d9d9d;
        fill-rule: evenodd;
      }
    </style>
  </defs>
  <title>yout</title>
  <path class="cls-1" d="M305.74906,417.09643a2.44189,2.44189,0,0,0-2.09026-1.90015,97.9498,97.9498,0,0,0-14.47957,0,2.43987,2.43987,0,0,0-2.08825,1.90015,30.95761,30.95761,0,0,0-.00374,9.13957,2.44087,2.44087,0,0,0,2.08925,1.90017,98.2118,98.2118,0,0,0,14.47857,0,2.44368,2.44368,0,0,0,2.09025-1.90017,31.23017,31.23017,0,0,0,.00375-9.13957Zm-11.827,7.5707v-6.39348c2.04835,1.06894,4.084,2.13016,6.146,3.20609-2.05607,1.066-4.09194,2.12218-6.146,3.18739Zm0,0" transform="translate(-286.74997 -414.92825)"/>
</svg>
