<svg id="Слой_1" data-name="Слой 1" xmlns="http://www.w3.org/2000/svg" viewBox="0 0 68.64082 61.33476">
  <defs>
    <style>
      .cls-1 {
        fill: #e0e1e7;
      }

      .cls-2 {
        fill: #574582;
      }
    </style>
  </defs>
  <title>Векторный смарт-объект3</title>
  <path class="cls-1" d="M157.7096,514.50966l-9.34213-18.88739c-2.10975-4.26535.41635-9.61335,5.39248-11.41646l10.092-3.65683a8.58178,8.58178,0,0,1,9.44836,2.12016l13.5877,15.70405c3.39108,3.91928,1.669,10.09131-3.50416,12.55935l-14.33752,6.84017C164.68565,519.85307,159.63327,518.39885,157.7096,514.50966Z" transform="translate(-120 -466.88857)"/>
  <g>
    <path class="cls-2" d="M157.06674,505.70207c1.96417-2.4902,1.79852-5.679,1.78718-7.38534l-.48365-14.36494a1.38334,1.38334,0,0,0-1.8064-1.267,24.71988,24.71988,0,0,1-17.12434-1.80837,4.57524,4.57524,0,1,0-1.72358,2.222,27.38067,27.38067,0,0,0,17.9526,2.6465l.42942,12.75081c.002.06558.30419,3.4664-1.271,5.58882-1.32917,1.79309-3.65718,3.05817-6.84057,3.49744-4.63383.64091-12.489,3.61627-15.12172,19.054a1.35469,1.35469,0,0,0,1.15168,1.57518,1.385,1.385,0,0,0,1.57715-1.15169c2.467-14.41473,10.06044-16.25565,12.85287-16.65056a12.54442,12.54442,0,0,0,8.62034-4.7068Zm-21.88142-24.66793a1.77461,1.77461,0,1,1,1.77336-1.77387,1.77438,1.77438,0,0,1-1.77336,1.77387Zm0,0" transform="translate(-120 -466.88857)"/>
    <g>
      <path class="cls-2" d="M145.70968,492.71214l.3392,11.03908a1.3819,1.3819,0,0,0,1.379,1.33853h.04437a1.381,1.381,0,0,0,1.33656-1.42137l-.37765-12.25976a1.3799,1.3799,0,0,0-1.302-1.33657c-.12868-.00788-12.387-.80312-19.17134-8.15788a4.58,4.58,0,1,0-3.37221,1.48693,4.63229,4.63229,0,0,0,.91453-.09071c6.22233,7.201,16.59879,8.9896,20.20963,9.40176ZM122.86,478.76724a1.7746,1.7746,0,1,1,1.77338,1.77386,1.77416,1.77416,0,0,1-1.77338-1.77386Zm0,0" transform="translate(-120 -466.88857)"/>
      <path class="cls-2" d="M160.14809,525.11843c-.07937-.04238-7.86554-4.50662-9.31156-12.45253a1.38013,1.38013,0,1,0-2.71552.495c1.67575,9.20951,10.307,14.15888,10.67474,14.36494a1.1631,1.1631,0,0,0,1.87986-.526,1.41654,1.41654,0,0,0-.52752-1.88135Zm0,0" transform="translate(-120 -466.88857)"/>
    </g>
    <path class="cls-2" d="M149.61927,479.97118a6.5413,6.5413,0,1,0-6.5403-6.5403,6.54765,6.54765,0,0,0,6.5403,6.5403Zm0-10.24927a3.70821,3.70821,0,1,1-3.707,3.709,3.71338,3.71338,0,0,1,3.707-3.709Zm0,0" transform="translate(-120 -466.88857)"/>
  </g>
</svg>
