<svg id="Слой_1" data-name="Слой 1" xmlns="http://www.w3.org/2000/svg" viewBox="0 0 75.5 50.67921">
  <defs>
    <style>
      .cls-1 {
        fill: #e0e1e7;
      }

      .cls-2 {
        fill: #574582;
      }
    </style>
  </defs>
  <title>зал групповых</title>
  <path class="cls-1" d="M319.95083,435.46337l-21.071.1539c-4.75847.03476-8.46593-4.57359-7.9144-9.83752l1.11858-10.67562a8.58178,8.58178,0,0,1,6.03421-7.5733l20.0618-5.36351c5.00684-1.33857,9.80678,2.90643,9.7673,8.63807l-.10941,15.88523C327.80467,431.522,324.28965,435.43169,319.95083,435.46337Z" transform="translate(-260.11188 -395.92168)"/>
  <g>
    <path class="cls-2" d="M296.43145,425.43313l-8.14533-5.49292a1.3601,1.3601,0,1,0-1.52088,2.25531l8.19637,5.53082c.82776.55266,5.34661,3.4199,12.20828,1.12231,7.18829-2.40744,13.2776-9.76292,18.04483-21.99793a1.35989,1.35989,0,1,0-2.53429-.98718c-4.38422,11.24394-10.03852,18.24218-16.30183,20.38035a11.85454,11.85454,0,0,1-9.94715-.81076Zm0,0" transform="translate(-260.11188 -395.92168)"/>
    <g>
      <path class="cls-2" d="M334.3589,430.79289c-7.965-.62654-18.93917-4.30258-19.04952-4.33855a1.36083,1.36083,0,1,0-.871,2.57852c.46321.15554,11.40288,3.81992,19.70569,4.47512a1.36179,1.36179,0,0,0,.21484-2.71509Zm0,0" transform="translate(-260.11188 -395.92168)"/>
      <path class="cls-2" d="M293.00816,408.30889l16.85059-9.84992a1.36149,1.36149,0,0,0-1.37456-2.35058L291.635,405.95833a1.32564,1.32564,0,0,0-.48751,1.86257,1.5201,1.5201,0,0,0,1.86062.488Zm0,0" transform="translate(-260.11188 -395.92168)"/>
    </g>
    <path class="cls-2" d="M325.2434,443.88044h-10.004a7.041,7.041,0,0,0-6.84075-5.68492h-.0209a6.99236,6.99236,0,0,0-6.85632,5.68492H286.46535c-.59249-3.54871-4.12029-5.27081-5.455-5.54251.993-15.531,6.00376-24.25908,7.87751-27.01792l17.19423,11.46412a1.36237,1.36237,0,0,0,1.51164-2.267L289.317,408.33366a1.3624,1.3624,0,0,0-1.78868.24693c-.32857.38351-7.99513,9.552-9.2443,29.74421a6.9975,6.9975,0,0,0-5.53668,5.55563H261.47331a1.36023,1.36023,0,1,0,0,2.72045h63.7701a1.36023,1.36023,0,1,0,0-2.72045Zm-16.86372-2.962h.01118a4.22938,4.22938,0,0,1,4.044,2.962h-8.11277a4.26726,4.26726,0,0,1,4.0576-2.962Zm-28.776,0h.01311c1.13737.00389,3.58272.96823,4.044,2.962H275.548a4.26667,4.26667,0,0,1,4.05566-2.962Zm0,0" transform="translate(-260.11188 -395.92168)"/>
    <path class="cls-2" d="M277.74843,415.54869a6.2864,6.2864,0,1,0-6.28811-6.28665,6.29428,6.29428,0,0,0,6.28811,6.28665Zm0-9.85235a3.56474,3.56474,0,1,1-3.56571,3.56571,3.5694,3.5694,0,0,1,3.56571-3.56571Zm0,0" transform="translate(-260.11188 -395.92168)"/>
  </g>
</svg>
