<svg id="Слой_1" data-name="Слой 1" xmlns="http://www.w3.org/2000/svg" viewBox="0 0 75.13605 61.05087">
  <defs>
    <style>
      .cls-1 {
        fill: #dfe0e6;
      }

      .cls-2 {
        fill: #5a5381;
      }
    </style>
  </defs>
  <title>кафе</title>
  <path class="cls-1" d="M90.43486,608.37156l-9.601-19.48165a8.1713,8.1713,0,0,1,4.63036-11.32479l9.38895-3.28583a8.17129,8.17129,0,0,1,9.0166,2.52993l13.48365,16.43587a8.1713,8.1713,0,0,1-2.799,12.55768l-13.27157,6.33162A8.1713,8.1713,0,0,1,90.43486,608.37156Z" transform="translate(-79.98895 -557.75807)"/>
  <path class="cls-2" d="M133.89453,592.139a1.35342,1.35342,0,0,0,1.88379-.35449,4.07081,4.07081,0,0,1,6.74072-.002,1.35579,1.35579,0,1,0,2.24316-1.52344,6.81141,6.81141,0,0,0-2.47607-2.208l-.10107-.05273.02979-.11035,7.61621-28.42383a1.35616,1.35616,0,0,0-2.62012-.70117l-7.645,28.5332-.11328-.00488a6.85559,6.85559,0,0,0-5.9126,2.96387A1.35668,1.35668,0,0,0,133.89453,592.139Z" transform="translate(-79.98895 -557.75807)"/>
  <path class="cls-2" d="M111.165,583.27574h11.04248a1.07351,1.07351,0,0,1,1.05908,1.05957v6.68555a1.3562,1.3562,0,0,0,2.7124,0v-6.68555a3.77609,3.77609,0,0,0-3.77148-3.77148H111.165a1.05957,1.05957,0,1,1,0-2.11914h24.10889a3.772,3.772,0,0,0,0-7.54395H119.03076a1.07308,1.07308,0,0,1-1.05957-1.05859,1.356,1.356,0,1,0-2.71191,0,3.77609,3.77609,0,0,0,3.77148,3.77148h16.24316a1.05957,1.05957,0,0,1,0,2.11914H111.165a3.77148,3.77148,0,1,0,0,7.543Z" transform="translate(-79.98895 -557.75807)"/>
  <path class="cls-2" d="M153.769,594.23668H95.47656a1.35645,1.35645,0,0,0,0,2.71289H102.644l.03711.08594,8.998,20.95313a1.35454,1.35454,0,0,0,1.24561.82031h23.39648a1.354,1.354,0,0,0,1.24561-.82031l9.03613-21.03906h7.166a1.35645,1.35645,0,0,0,0-2.71289ZM135.42822,616.097H113.81836l-4.394-10.23242-3.8291-8.915h38.05615Z" transform="translate(-79.98895 -557.75807)"/>
</svg>
