<svg id="Слой_1" data-name="Слой 1" xmlns="http://www.w3.org/2000/svg" viewBox="0 0 70.48657 53.31446">
  <defs>
    <style>
      .cls-1 {
        fill: #574582;
      }

      .cls-2 {
        fill: #fff;
      }
    </style>
  </defs>
  <title>массаж</title>
  <path class="cls-1" d="M31.87009,35.96911,14.98392,23.36486c-3.81342-2.84641-3.98477-8.75851-.36578-12.62064l7.33957-7.83267A8.58174,8.58174,0,0,1,31.34116.52044L50.56965,8.36315c4.79886,1.95731,6.06036,8.23969,2.567,12.78387L43.45475,33.7412C40.51011,37.57158,35.3472,38.5645,31.87009,35.96911Z" transform="translate(0.00022 0.00002)"/>
  <path class="cls-2" d="M34.71543,9.3882a6.83086,6.83086,0,1,0,0,.00162Zm-10.702,0a3.87321,3.87321,0,1,1,3.87244,3.874h0A3.87664,3.87664,0,0,1,24.01343,9.3882Z" transform="translate(0.00022 0.00002)"/>
  <path class="cls-2" d="M64.5488,38.22155a6.83084,6.83084,0,1,0,0,.00158Zm-10.702,0a3.87321,3.87321,0,1,1,3.87244,3.874h0A3.87665,3.87665,0,0,1,53.8468,38.22155Z" transform="translate(0.00022 0.00002)"/>
  <g>
    <path class="cls-2" d="M70.43116,46.15419a1.47014,1.47014,0,0,0-1.80078-.99609L56.14063,50.28321,45.43554,41.59069a1.44223,1.44223,0,0,0-.80566-.24414H5.20606a1.45166,1.45166,0,0,0,0,2.90332H44.189l10.897,8.82141a1.47687,1.47687,0,0,0,1.20654.18945l13.14063-5.31067A1.45709,1.45709,0,0,0,70.43116,46.15419Z" transform="translate(0.00022 0.00002)"/>
    <path class="cls-2" d="M42.90989,32.60769l-2.63035-1.57807a1.43187,1.43187,0,0,1-.24744-.11615l-13.86633-11.147a7.53974,7.53974,0,0,0-10.34313,2.59119q-.04253.071-.08347.14279l-6.202,12.1391a1.45686,1.45686,0,0,0,.6499,1.94824l.00244.001a1.4208,1.4208,0,0,0,.62939.14551,1.47424,1.47424,0,0,0,1.31689-.7959l6.02332-11.782a4.6503,4.6503,0,0,1,6.23895-2.07993l.00005,0q.15971.07988.313.17181L41.41535,35.09795A1.45217,1.45217,0,0,0,42.91,32.60772Z" transform="translate(0.00022 0.00002)"/>
    <path class="cls-2" d="M44.62989,49.85634H1.45118a1.45117,1.45117,0,1,0-.00046,2.90234H44.62989a1.45117,1.45117,0,0,0,0-2.90234Z" transform="translate(0.00022 0.00002)"/>
  </g>
</svg>
