<svg id="Слой_1" data-name="Слой 1" xmlns="http://www.w3.org/2000/svg" viewBox="0 0 67.98624 61.83743">
  <defs>
    <style>
      .cls-1 {
        fill: #574582;
      }

      .cls-2 {
        fill: #fff;
      }
    </style>
  </defs>
  <title>игровой зал</title>
  <path class="cls-1" d="M10.09031,57.62593.74818,38.73854c-2.10974-4.26535.41635-9.61334,5.39249-11.41647l10.092-3.65683A8.58181,8.58181,0,0,1,25.681,25.78539l13.58771,15.704c3.39108,3.91928,1.669,10.09131-3.50415,12.55936L21.427,60.889C17.06639,62.96935,12.014,61.51513,10.09031,57.62593Z" transform="translate(0 -0.00003)"/>
  <g>
    <g>
      <path class="cls-2" d="M54.02549,33.20733a10.49515,10.49515,0,0,0-1.7879-7.45667l-7.03867-12.685a1.39278,1.39278,0,0,0-1.89322-.54349q-.04875.027-.09521.05783c-.15375.103-13.26074,8.739-23.6926,11.025A6.24891,6.24891,0,1,0,13.982,26.95042h.002c11.18622-.311,25.09387-8.45935,29.50067-11.23349l6.35992,11.4624a1.581,1.581,0,0,0,.11246.17514,7.77577,7.77577,0,0,1,1.32016,5.4c-.36923,2.23129-1.93021,4.278-4.6611,6.0957-.109.07364-10.60153,7.53976-5.81406,21.90021a1.35087,1.35087,0,0,0,1.6799.9097q.041-.01218.08109-.027a1.37915,1.37915,0,0,0,.89227-1.73434l-.00952-.02866c-4.10925-12.33121,4.39487-18.47568,4.73474-18.715,3.38025-2.24869,5.34729-4.92136,5.84488-7.94781ZM10.59977,21.426a3.45246,3.45246,0,0,1,2.63414-4.111h0l.02652-.00571a3.46529,3.46529,0,0,1,1.46439,6.77411l-.00839.0018a3.37215,3.37215,0,0,1-4.0769-2.47418Q10.61709,21.519,10.59977,21.426Z" transform="translate(0 -0.00003)"/>
      <path class="cls-2" d="M67.41462,58.96048c-.113-.09158-11.243-9.09329-16.48724-15.95084A1.39368,1.39368,0,0,0,48.713,44.70256h0c5.44681,7.12225,16.47379,16.06528,16.952,16.427a1.39868,1.39868,0,0,0,2.078-.15527,1.52171,1.52171,0,0,0-.32843-2.01379Z" transform="translate(0 -0.00003)"/>
    </g>
    <path class="cls-2" d="M44.59431,37.67587a1.38134,1.38134,0,0,0,.64774-1.843h0l-.01028-.021-6.10315-12.473a1.39541,1.39541,0,0,0-2.01978-.55035c-10.38556,6.83813-22.993,6.93564-23.11935,6.93564a1.39255,1.39255,0,0,0,.002,2.7851,50.00433,50.00433,0,0,0,23.31393-6.554l5.423,11.08123a1.40772,1.40772,0,0,0,1.866.63943Z" transform="translate(0 -0.00003)"/>
    <path class="cls-2" d="M42.67008,6.6087a6.60973,6.60973,0,1,0-6.60873,6.61079A6.60973,6.60973,0,0,0,42.67008,6.6087Zm-10.35822,0a3.7626,3.7626,0,1,1,0,.002Z" transform="translate(0 -0.00003)"/>
  </g>
</svg>
