<svg id="Слой_1" data-name="Слой 1" xmlns="http://www.w3.org/2000/svg" viewBox="0 0 68.65583 61.42375">
  <defs>
    <style>
      .cls-1 {
        fill: #e0e1e7;
      }

      .cls-2 {
        fill: #574582;
      }
    </style>
  </defs>
  <title>сауна</title>
  <path class="cls-1" d="M268.50819,424.10814,262.9496,403.783c-1.25531-4.59,2.2467-9.3564,7.47578-10.17483l10.605-1.65982a8.58178,8.58178,0,0,1,8.86869,3.88753l10.33448,18.01226c2.57917,4.49534-.29117,10.22426-5.84081,11.65767l-15.38083,3.9727C274.33391,430.68678,269.65277,428.29339,268.50819,424.10814Z" transform="translate(-262.69373 -390.8977)"/>
  <path class="cls-2" d="M289.18241,418.4337V433.9662a1.45117,1.45117,0,1,0,2.90234,0V418.4337a1.45117,1.45117,0,1,0-2.90234,0Z" transform="translate(-262.69373 -390.8977)"/>
  <g>
    <path class="cls-2" d="M294.84371,413.172a6.689,6.689,0,1,0-6.68848-6.68945A6.69653,6.69653,0,0,0,294.84371,413.172Zm0-10.70312a4.01465,4.01465,0,1,1-4.01416,4.01367A4.01927,4.01927,0,0,1,294.84371,402.46891Z" transform="translate(-262.69373 -390.8977)"/>
    <path class="cls-2" d="M311.21041,433.47184a1.403,1.403,0,0,0-1.31592-.92187H298.95406V418.5236a1.40112,1.40112,0,1,0-2.80225,0v15.42773a1.402,1.402,0,0,0,1.40088,1.40039H308.914l.03418.09277,5.80127,15.95508a1.40344,1.40344,0,0,0,1.31592.92188,1.37728,1.37728,0,0,0,.479-.085,1.399,1.399,0,0,0,.83691-1.79492Z" transform="translate(-262.69373 -390.8977)"/>
    <path class="cls-2" d="M305.88375,438.72087h-20.959a1.40088,1.40088,0,1,0,0,2.80176h20.959a1.40088,1.40088,0,1,0,0-2.80176Z" transform="translate(-262.69373 -390.8977)"/>
    <path class="cls-2" d="M319.59908,391.04411a1.4035,1.4035,0,0,0-.627,1.87988c2.78271,5.56738,1.4917,10.40332-.00293,16.00391a44.05953,44.05953,0,0,0-1.92285,10.92383,1.40132,1.40132,0,1,0,2.80225.04688,41.99191,41.99191,0,0,1,1.8252-10.24316c1.50635-5.63867,3.063-11.46582-.1958-17.98437A1.40421,1.40421,0,0,0,319.59908,391.04411Z" transform="translate(-262.69373 -390.8977)"/>
    <path class="cls-2" d="M329.43014,391.67106a1.40125,1.40125,0,1,0-2.50684,1.25293c2.78418,5.56641,1.49268,10.40332-.00244,16.00293-1.5791,5.91309-3.36768,12.61035-.04541,20.916a1.40133,1.40133,0,1,0,2.60254-1.04c-2.97705-7.44238-1.38916-13.39258.147-19.14648C331.1318,404.01579,332.68893,398.18766,329.43014,391.67106Z" transform="translate(-262.69373 -390.8977)"/>
  </g>
</svg>
