<svg id="Слой_1" data-name="Слой 1" xmlns="http://www.w3.org/2000/svg" viewBox="0 0 67.85591 50.9186">
  <defs>
    <style>
      .cls-1 {
        fill: #e0e1e7;
      }

      .cls-2 {
        fill: #574582;
      }
    </style>
  </defs>
  <title>кардио</title>
  <path class="cls-1" d="M303.13557,376.60155l-16.88616-12.60422c-3.81342-2.84642-3.98476-8.75851-.36578-12.62064l7.33957-7.83267a8.58178,8.58178,0,0,1,9.38344-2.39113l19.22849,7.84271c4.79886,1.95732,6.06035,8.23968,2.567,12.78386l-9.68189,12.59418C311.77557,378.204,306.61267,379.197,303.13557,376.60155Z" transform="translate(-265.47742 -327.12857)"/>
  <g>
    <g>
      <path class="cls-2" d="M266.94378,371.009a13.48274,13.48274,0,0,1,5.45492-17.918c2.66946-1.48861,7.22438-1.93377,7.22438-1.93377,4.26085-.727,11.64345-3.12023,13.35084-11.00394a1.42754,1.42754,0,0,1,2.10067-.93611l11.95582,6.85043a1.42488,1.42488,0,0,1-1.41689,2.47256l-10.368-5.94026c-2.05284,5.95807-7.46248,10.05409-15.13356,11.36363a22.61267,22.61267,0,0,0-6.37372,1.64125,10.45818,10.45818,0,0,0-4.28272,14.06261c4.18555,8.03279,11.61241,5.58618,14.0626,4.2807a10.396,10.396,0,0,0,1.78879-17.1406,1.40148,1.40148,0,0,1-.17908-2.00757,1.4265,1.4265,0,0,1,2.007-.17858c1.30192,1.09079,6.40122,5.6279,4.16368,14.01276a12.944,12.944,0,0,1-6.43885,7.82623c-3.94085,2.2075-13.506,3.37815-17.916-5.45135Zm0,0" transform="translate(-265.47742 -327.12857)"/>
      <path class="cls-2" d="M308.35573,369.27773c-3.84316-6.0868.29611-12.99675.52454-13.36256,6.80108-10.81112,2.69133-13.7604,1.14471-14.86949-.10125-.07123-11.05941-6.54417-11.05941-6.54417a1.424,1.424,0,0,1,1.44488-2.45427s11.17082,6.61947,11.2741,6.68306c1.88037,1.15286,7.8364,5.62027-.39124,18.701-.147.23452-2.99913,5.55461-.15517,10.4a10.34306,10.34306,0,0,0,13.794,4.388c6.81075-3.47227,6.302-10.38985,4.28273-14.06258a10.47935,10.47935,0,0,0-11.5244-5.23667,1.42448,1.42448,0,0,1-.64816-2.77425,13.29766,13.29766,0,0,1,14.68685,6.67134c2.10219,3.8915,3.62846,13.50807-5.45542,17.91594-4.5946,2.22787-12.43864,3.22351-17.918-5.4554Zm0,0" transform="translate(-265.47742 -327.12857)"/>
    </g>
    <path class="cls-2" d="M293.4486,333.81011a6.68127,6.68127,0,1,0-6.681,6.68306,6.68807,6.68807,0,0,0,6.681-6.68306Zm-10.46925,0a3.789,3.789,0,1,1,3.78823,3.78975,3.79233,3.79233,0,0,1-3.78823-3.78975Zm0,0" transform="translate(-265.47742 -327.12857)"/>
  </g>
</svg>
