<svg id="Слой_1" data-name="Слой 1" xmlns="http://www.w3.org/2000/svg" viewBox="0 0 66.70557 51.89014">
  <defs>
    <style>
      .cls-1 {
        fill: #e0e1e7;
      }

      .cls-2 {
        fill: #584286;
      }
    </style>
  </defs>
  <title>простоая отчестность</title>
  <path class="cls-1" d="M214.747,507.85147l-5.01956-15.82311c-1.81115-5.70921,1.5221-11.38625,6.78272-11.55208l21.07871-.66439a8.91667,8.91667,0,0,1,8.18366,5.74923l4.385,10.32039c2.16215,5.08879-.00118,10.80077-4.6181,12.1935l-20.44417,6.16715C220.88553,515.51207,216.27367,512.664,214.747,507.85147Z" transform="translate(-184.29443 -478.05357)"/>
  <g>
    <path class="cls-2" d="M229.08887,503.42174a2.08325,2.08325,0,0,1-2.08057-2.08057.86011.86011,0,1,0-1.72021,0,3.817,3.817,0,0,0,2.77686,3.6582l.16406.04492V506.138a.86011.86011,0,1,0,1.72021,0V505.0443l.16455-.0459a3.79991,3.79991,0,0,0-1.02441-7.4585,2.10931,2.10931,0,0,1-1.46973-.59473,2.07552,2.07552,0,0,1,1.43457-3.55566h.03467a2.09268,2.09268,0,0,1,2.08105,2.06738.86011.86011,0,1,0,1.72021.00244,3.82832,3.82832,0,0,0-2.77686-3.64648l-.16406-.04639v-.9082a.86011.86011,0,1,0-1.72021,0v.90869l-.16455.0459a3.79376,3.79376,0,0,0,1.02441,7.44727,2.08081,2.08081,0,1,1,0,4.16162Z" transform="translate(-184.29443 -478.05357)"/>
    <path class="cls-2" d="M236.28467,478.1317H222.9082a1.05884,1.05884,0,0,0,0,2.11768h13.44092a2.88658,2.88658,0,0,1,2.8833,2.8833v30.60107H228.20654a3.01592,3.01592,0,0,0-3.03955,3.03809v11.02734H212.50244a1.01028,1.01028,0,0,0-1.00928,1.06543,1.02179,1.02179,0,0,0,.99609.99414c3.75439.05273,13.48779.085,13.56348.085a1.04547,1.04547,0,0,0,.75586-.30859l14.25977-14.19434a1.11017,1.11017,0,0,0,.29492-.75684V483.14586A4.9932,4.9932,0,0,0,236.28467,478.1317Zm1.38428,37.73389L227.29736,526.18v-9.47852a.88378.88378,0,0,1,.918-.83594Z" transform="translate(-184.29443 -478.05357)"/>
    <path class="cls-2" d="M218.44775,516.08141V483.19664a5.17345,5.17345,0,0,0-4.40186-5.06738l-.06592-.00977a4.64619,4.64619,0,0,0-.67529-.06592H189.4375a5.14884,5.14884,0,0,0-5.14307,5.14307v41.60352a5.14926,5.14926,0,0,0,5.14307,5.14355H204.582a1.08665,1.08665,0,0,0,.416-.10352,1.099,1.099,0,0,0,.58252-.5625l.0498-.07422,12.26807-12.18457A1.04915,1.04915,0,0,0,218.44775,516.08141Zm-31.91943-32.88477a2.91263,2.91263,0,0,1,2.90918-2.90918h23.86719a2.91263,2.91263,0,0,1,2.90918,2.90918v31.7627h-9.61914a3.15221,3.15221,0,0,0-3.13037,3.13086v9.61914H189.4375a2.91232,2.91232,0,0,1-2.90918-2.90918Zm19.16992,34.89063a.80205.80205,0,0,1,.17334-.58105.82076.82076,0,0,1,.55371-.31055c.03223-.00293.06494-.00488.09814-.00488a.89175.89175,0,0,1,.10156.00586l7.96436-.002-8.89111,8.81641Z" transform="translate(-184.29443 -478.05357)"/>
    <path class="cls-2" d="M194.69092,499.412h14.36035a1.11694,1.11694,0,0,0,0-2.23389H194.69092a1.11694,1.11694,0,0,0,0,2.23389Z" transform="translate(-184.29443 -478.05357)"/>
    <path class="cls-2" d="M194.69092,492.35973h5.63672a1.11719,1.11719,0,1,0,0-2.23437h-5.63672a1.11719,1.11719,0,0,0,0,2.23438Z" transform="translate(-184.29443 -478.05357)"/>
    <path class="cls-2" d="M194.69092,506.46422h8.9917a1.11719,1.11719,0,0,0,0-2.23437h-8.9917a1.11719,1.11719,0,0,0,0,2.23438Z" transform="translate(-184.29443 -478.05357)"/>
  </g>
</svg>
