<svg id="Слой_1" data-name="Слой 1" xmlns="http://www.w3.org/2000/svg" viewBox="0 0 66.34891 49.73242">
  <defs>
    <style>
      .cls-1 {
        fill: #e0e1e7;
      }

      .cls-2 {
        fill: #584286;
      }
    </style>
  </defs>
  <title>одно окно</title>
  <path class="cls-1" d="M235.56262,441.59616,220.241,438.11549c-5.52827-1.25587-8.56637-6.696-6.18217-11.07007l9.55326-17.52622a8.43958,8.43958,0,0,1,8.61306-3.92729l10.52545,1.36318c5.18989.67217,8.81685,5.174,7.74256,9.61016L245.73609,436.209C244.75656,440.25391,240.22262,442.6548,235.56262,441.59616Z" transform="translate(-184.33333 -392.11363)"/>
  <g>
    <path class="cls-2" d="M229.36413,392.11363H202.47692a18.20372,18.20372,0,0,0-1.39984,36.34869,1.29676,1.29676,0,0,0,1.39984-1.2876,1.26971,1.26971,0,0,0-1.15625-1.27655,15.62844,15.62844,0,0,1,1.15527-31.20935h26.88818a15.62608,15.62608,0,0,1,0,31.252h-8.10986a1.26926,1.26926,0,0,0-.94336.35449L209.972,437.055v-9.80151a1.27512,1.27512,0,0,0-2.55023-.00244l-.025,13.00806a1.26813,1.26813,0,0,0,.82031,1.18848,1.3826,1.3826,0,0,0,.54883.09961,1.22508,1.22508,0,0,0,.875-.35059l12.1792-12.68066h7.54395a18.20126,18.20126,0,0,0,0-36.40234Z" transform="translate(-184.33333 -392.11363)"/>
    <path class="cls-2" d="M215.96032,416.58824l-.16455.01172c-.01855-.001-.0376-.002-.05615-.002a1.6028,1.6028,0,0,0-1.07959.43262,1.49938,1.49938,0,0,0-.45947,1.08691,1.41323,1.41323,0,0,0,.46875,1.13574,1.6428,1.6428,0,0,0,2.16553-.00977,1.541,1.541,0,0,0-.87451-2.65527Z" transform="translate(-184.33333 -392.11363)"/>
    <path class="cls-2" d="M218.31725,411.37975c.96973-.87451,1.64648-1.49268,2.02979-1.876a5.246,5.246,0,0,0,.93506-1.26465,3.40014,3.40014,0,0,0,.37549-1.66455,4.08452,4.08452,0,0,0-.6875-2.27l-.001-.00146a4.69428,4.69428,0,0,0-1.93457-1.64209,7.38,7.38,0,0,0-6.124.11133,5.3579,5.3579,0,0,0-2.03711,1.855,4.08807,4.08807,0,0,0-.68994,2.17578,1.19259,1.19259,0,0,0,.38184.84961,1.33125,1.33125,0,0,0,.95166.394c.65137-.00049,1.07568-.38184,1.30957-1.167a5.41358,5.41358,0,0,1,1.11621-2.062,2.86049,2.86049,0,0,1,2.20654-.73193,2.937,2.937,0,0,1,1.92627.71729,2.38656,2.38656,0,0,1,.79541,1.80225,2.04364,2.04364,0,0,1-.26318,1.02686,3.33787,3.33787,0,0,1-.625.81006c-.21045.21045-.583.56592-1.12158,1.0249-.47168.415-.93213.85645-1.36523,1.30859a3.97,3.97,0,0,0-1.06494,2.85547,1.347,1.347,0,0,0,.34326,1.03662,1.27416,1.27416,0,0,0,.88672.33643,1.07457,1.07457,0,0,0,1.17676-1.02637l.12354-.53418c.02979-.13037.05322-.23193.07178-.30713a2.53324,2.53324,0,0,1,.208-.50635,2.22121,2.22121,0,0,1,.415-.58984C217.86511,411.81236,218.08141,411.59605,218.31725,411.37975Z" transform="translate(-184.33333 -392.11363)"/>
  </g>
</svg>
