<svg id="Слой_1" data-name="Слой 1" xmlns="http://www.w3.org/2000/svg" viewBox="0 0 66.30244 51.78486">
  <defs>
    <style>
      .cls-1 {
        fill: #e0e1e7;
      }

      .cls-2 {
        fill: #584286;
      }
    </style>
  </defs>
  <title>возможность для сотрудников</title>
  <path class="cls-1" d="M247.93239,486.41154,236.6093,498.44146c-4.08553,4.34059-10.63558,4.19354-13.32854-.2992l-10.79032-18.00191a8.87393,8.87393,0,0,1,1.0328-9.89963l6.847-8.81219c3.37613-4.34511,9.38973-5.232,12.83737-1.89329l15.26646,14.78418C251.61764,477.36368,251.37627,482.7527,247.93239,486.41154Z" transform="translate(-184.37981 -449.82161)"/>
  <g>
    <path class="cls-2" d="M230.50335,454.9136c-4.5686-4.56547-11.736-6.11882-18.75187-4.42525a1.2184,1.2184,0,0,0-.80016,1.75487h0a1.21375,1.21375,0,0,0,1.37277.59264c6.21631-1.53393,12.43107-.19758,16.44244,3.81456a16.26674,16.26674,0,0,1,4.37842,13.17676,22.97493,22.97493,0,0,1-6.75342,14.21c-3.45166,3.44824-7.08691,5.42676-10.80762,5.88379l-20.0498-20.05029.02051-.05273-.04736-.02783-.45389-.34362a1.28039,1.28039,0,0,0-2.0505.93737h0a1.13841,1.13841,0,0,0-.05127.25635,16.49933,16.49933,0,0,0,.39063,4.51953l.043.17676c.125.5249.27979,1.062.48291,1.65967l.05371.1377c.20117.57129.41309,1.09668.64941,1.60645a6.16822,6.16822,0,0,1,.49561,4.02148c-.02295.08105-.04883.15918-.07422.23828l-.08154.26855c-.03711.13379-.07324.26758-.11914.39453-.0498.13867-.10889.26953-.18994.44922l-.03955.09961c-.0376.0957-.07568.19336-.12842.29883-.06152.13281-.13574.25586-.20947.38086l-.13086.23145c-.03076.05859-.061.11621-.09473.16992-.09473.15234-.20117.29492-.30566.43555l-.05029.06836c-.03711.04688-.07031.09473-.10352.14355l-.0708.09863c-.11084.14063-.23389.27441-.35742.40918l-.26074.28906c-.16016.16406-.33447.31641-.51172.47266l-.20947.19043c-.2334.19336-.4834.38379-.74561.56836l-.07568.06152c-.29395.20215-.60693.40332-.93066.59668a34.5068,34.5068,0,0,0-3.51758,2.32715l-1.35645,1.04492a2.87522,2.87522,0,0,0-.28027,4.31445l4.4541,4.4502a2.83977,2.83977,0,0,0,2.03418.84277,2.18718,2.18718,0,0,0,.53745-.053,3.14294,3.14294,0,0,0,1.85084-1.21408l1.31923-1.774c.3833-.51172.7749-1.08691,1.23193-1.80859.28223-.44629.56787-.90918.85107-1.40918.19189-.32617.3833-.63672.57764-.92773a9.80479,9.80479,0,0,1,2.54-2.627l-.21228-.30939.00006-.00006.31134.23523c.13184-.08984.271-.168.40918-.24512l.34424-.20117c.12061-.06152.24561-.11328.37012-.166l.24951-.11133c.06055-.0293.11963-.05859.188-.084.106-.04.21631-.07422.3252-.10742l.28857-.09375c.08154-.02832.16211-.05664.24512-.0791a5.80294,5.80294,0,0,1,3.39355.16992c.22021.07715.42773.15332.60107.22754l.10693.04492c.36377.15723.73047.29591,1.08887.41992.07813.0293.15332.05371.30664.10352.36377.125.73047.23438,1.09766.3291l.105.03027a16.20717,16.20717,0,0,0,4.93115.49707.5.5,0,0,0,.13672-.0293c4.59375-.29785,9.16455-2.59668,13.21777-6.64844C237.13274,476.76565,238.2221,462.63235,230.50335,454.9136ZM195.189,487.19638l.00092.00092-.00122-.00049Zm14.74213,4.39642v-.00031h.00006Zm1.90869-1.73242c-.37109-.05273-.74316-.12988-1.14355-.22363a.96871.96871,0,0,1-.10937-.02344c-.36279-.08984-.72412-.19824-1.07275-.30957l-.16748-.05078c-.4126-.14258-.81934-.29785-1.22656-.47168a10.03132,10.03132,0,0,0-1.97363-.61719c-.05859-.01465-.11719-.0293-.17676-.03809l-.37939-.05469c-.10986-.01562-.2207-.03125-.31836-.04l-.09424-.00391a7.82861,7.82861,0,0,0-1.33936-.00586l-.23047.0293c-.14893.0166-.29834.0332-.42969.05957-.19092.03027-.37793.07422-.57764.126l-.11084.02344c-.34863.09473-.68555.207-1.08789.35645a10.2362,10.2362,0,0,0-.94336.418l-.09033.043a9.53857,9.53857,0,0,0-.853.49219l-.127.0752c-.28516.19043-.561.39355-.83105.61426l-.07764.05859a13.66118,13.66118,0,0,0-3.103,3.80078,29.83467,29.83467,0,0,1-1.92285,2.97949l-1.40186,1.88477-.00049.001a.40931.40931,0,0,1-.30615.16895.39159.39159,0,0,1-.32959-.125l-4.45654-4.45215a.40938.40938,0,0,1-.12354-.32324.41541.41541,0,0,1,.167-.3125l1.35156-1.03809a33.1229,33.1229,0,0,1,3.27344-2.16406,15.78626,15.78626,0,0,0,2.01416-1.4082l.1123-.09082c.312-.26855.61035-.5459.88818-.8291l.07324-.08105c.249-.2666.48975-.5332.69287-.79785a1.16888,1.16888,0,0,0,.11182-.15332c.20313-.2627.39746-.53027.57471-.81152.03125-.05078.05859-.10254.11377-.208.16113-.2627.31152-.52832.438-.79a1.60348,1.60348,0,0,0,.08545-.19238l.04541-.10937c.11523-.25488.23-.51074.33545-.7959l.09033-.29785c.07861-.23926.15625-.47559.21875-.72266l.03613-.13379a8.496,8.496,0,0,0-.66064-5.61426c-.06445-.13574-.11816-.27148-.17285-.40918l-.082-.20312a14.918,14.918,0,0,1-1.04395-3.78857l16.59033,16.59521Q211.96795,489.87942,211.83977,489.86038Z" transform="translate(-184.37981 -449.82161)"/>
    <path class="cls-2" d="M197.09612,467.55081c.19971.08691.40088.1665.5835.22852l.18506.06689c.18262.06055.36523.11279.541.15771.06592.019.13281.03418.23828.05762.17432.04346.3501.07861.52539.10986.06641.01172.13086.02.28711.04l.127.01709c.12158.0166.24365.0332.36768.04346.07568.00537.14844.00781.2207.00928l.085.00244c.13623.00928.26807.01807.48438.01807h.00635c.11963-.00391.23633-.01074.4043-.02148.22217-.01221.44092-.03027.65381-.05957.1626-.01807.32617-.041.4873-.07129.09375-.01709.186-.03809.2793-.05908l.52441-.12549c.11475-.03516.229-.07031.32568-.106.14795-.04785.29541-.0957.44824-.15381l.32813-.13574c.13965-.06348.27979-.12744.4502-.21.09619-.04834.19189-.09668.30469-.15918.13818-.0791.27686-.15869.47266-.28271.07471-.0459.15088-.09326.21484-.13867.15039-.1001.29248-.2085.44287-.32373.082-.05859.1582-.11768.23682-.18115.21729-.17969.42969-.36963.63428-.57422.208-.208.40332-.42529.58252-.64258.04346-.05127.083-.105.12256-.15869l.064-.085c.11182-.14648.22314-.292.333-.45166l.26074-.42871c.05811-.09619.11572-.19238.168-.28809.043-.07666.08252-.15625.12158-.23633l.05225-.106c.06445-.13623.12744-.27246.189-.41162.04639-.1084.08594-.21582.14795-.38428.04932-.13281.09863-.26514.14063-.39893.03857-.125.07324-.25.105-.36914.04053-.1377.07178-.28027.10059-.41553.03174-.13379.05811-.27148.07813-.395.02734-.1416.04541-.27832.0625-.415.01709-.13721.03076-.27051.04346-.4165.00879-.12891.01318-.25928.01758-.395.00439-.14062.00879-.27979.00879-.42041,0-.11963-.0083-.2417-.01758-.37939-.00879-.14453-.01758-.28906-.03076-.45166-.0083-.07031-.02-.14062-.03174-.21143l-.02344-.15088c-.021-.15088-.0415-.29736-.07129-.44434l-.05566-.24951a9.25956,9.25956,0,0,0-.66162-1.86816c-.02588-.05859-.05225-.11768-.08057-.17139-.05762-.11377-.12256-.22607-.187-.3374l-.11084-.188c-.04346-.07227-.08643-.144-.12451-.2002-.04932-.07959-.10107-.15674-.16895-.25391l-.92633-1.00394a8.6456,8.6456,0,0,0-2.71961-2.05652,8.8253,8.8253,0,0,0-9.22283,14.92961l1.00842.81787A9.88,9.88,0,0,0,197.09612,467.55081Zm5.53674.14008h.00024l.00012.00055ZM196.10833,454.857a6.44165,6.44165,0,0,1,9.10986,9.10986c-.1543.1543-.31738.29639-.48047.43262l-.18262.13574c-.10645.08252-.21582.165-.32178.23633l-.3584.21631c-.05908.03564-.11768.0708-.17432.10107l-.40283.19287c-.05127.0249-.10254.0498-.15332.07031l-.30664.11084c-.0918.03564-.18408.07031-.27686.09961l-.30664.083c-.09424.02393-.189.04688-.291.06787-.10205.02295-.208.03857-.30664.05273l-.27686.04c-.11279.01172-.229.01953-.36279.0249-.07666.00635-.15381.01025-.23877.01025-.12793.00586-.25391.00049-.377-.00391l-.20654-.01074c-.13965-.01221-.2793-.02881-.46875-.05469l-.11963-.01709c-.15527-.02686-.30176-.05859-.46777-.09717l-.11963-.03027a5.62017,5.62017,0,0,1-.5498-.16992c-.17334-.06348-.34326-.13379-.54395-.2251a6.31,6.31,0,0,1-1.53857-1.02051l-.27832-.24512A6.45316,6.45316,0,0,1,196.10833,454.857Z" transform="translate(-184.37981 -449.82161)"/>
  </g>
</svg>
