<svg id="Слой_1" data-name="Слой 1" xmlns="http://www.w3.org/2000/svg" viewBox="0 0 66.70557 52.30127">
  <defs>
    <style>
      .cls-1 {
        fill: #e0e1e7;
      }

      .cls-2 {
        fill: #584286;
      }
    </style>
  </defs>
  <title>корпоративные скидки</title>
  <path class="cls-1" d="M218.71393,597.00771l-9.86354-13.35206c-3.55893-4.81762-2.23908-11.26721,2.68571-13.12413l19.73306-7.44041a8.91667,8.91667,0,0,1,9.60246,2.79618l7.4848,8.34964c3.6906,4.11705,3.48919,10.22166-.42995,13.03164l-17.35433,12.44287C226.99865,602.27361,221.71387,601.06868,218.71393,597.00771Z" transform="translate(-184.29443 -548.7554)"/>
  <g>
    <path class="cls-2" d="M219.29511,562.85745a5.25977,5.25977,0,1,0,5.25879,5.25879A5.26575,5.26575,0,0,0,219.29511,562.85745Zm2.75879,5.25879a2.75952,2.75952,0,1,1-2.75879-2.75879A2.76291,2.76291,0,0,1,222.0539,568.11624Z" transform="translate(-184.29443 -548.7554)"/>
    <path class="cls-2" d="M229.37373,555.33352l-.43408-.14893-1.09717-.15967c-.30176-.0249-1.582-.03271-1.76611-.0332l-13.354.06152a4.83331,4.83331,0,0,0-3.33838,1.32568l-.07764-.07764L188.6374,576.97073l-1.68408-1.33594a2.27794,2.27794,0,0,1-.13379-.7627,2.32469,2.32469,0,0,1,.68506-1.6543L208.757,551.96536a2.32713,2.32713,0,0,1,1.65479-.68555h15.02588a2.3202,2.3202,0,0,1,2.15625,1.45947,1.22175,1.22175,0,0,0,1.146.71387,1.27088,1.27088,0,0,0,1.06055-.57178,1.209,1.209,0,0,0,.11084-1.1582,4.855,4.855,0,0,0-4.47314-2.96777H210.41181a4.83333,4.83333,0,0,0-3.43994,1.42529l-21.252,21.25391a4.823,4.823,0,0,0-1.4248,3.4375l-.00049.11719a2.69918,2.69918,0,0,0,.38281,1.72461,20.10808,20.10808,0,0,0,2.53027,2.28125,5.55774,5.55774,0,0,0-.48047,1.08691,4.89156,4.89156,0,0,0-.12158,1.08789A4.83413,4.83413,0,0,0,188.03,584.6094l15.02686,15.02441a4.8697,4.8697,0,0,0,6.87891.001l21.252-21.252a4.82922,4.82922,0,0,0,1.4248-3.43945V559.918A4.87137,4.87137,0,0,0,229.37373,555.33352Zm.71436,4.58447v15.02539a2.32244,2.32244,0,0,1-.68506,1.65332l-21.25146,21.25391a2.39954,2.39954,0,0,1-3.31006,0l-15.02588-15.02539a2.33924,2.33924,0,0,1-.55371-2.42871l1.252-1.58008,20.55322-20.55322a2.32415,2.32415,0,0,1,1.65479-.68506h15.02637A2.34269,2.34269,0,0,1,230.08808,559.918Z" transform="translate(-184.29443 -548.7554)"/>
  </g>
</svg>
