<svg id="Слой_1" data-name="Слой 1" xmlns="http://www.w3.org/2000/svg" viewBox="0 0 66.34883 49.73246">
  <defs>
    <style>
      .cls-1 {
        fill: #584286;
      }

      .cls-2 {
        fill: #fff;
      }
    </style>
  </defs>
  <title>ТЕМА 2 одно окно</title>
  <path class="cls-1" d="M51.22929,49.48253,35.90767,46.00185c-5.52827-1.25586-8.56638-6.696-6.18217-11.07007l9.55325-17.52621a8.43961,8.43961,0,0,1,8.61305-3.92728l10.52545,1.36319c5.1899.67218,8.81685,5.174,7.74255,9.61017l-4.757,19.64374C60.42323,48.14027,55.8893,50.54115,51.22929,49.48253Z" transform="translate(-0.00007 0.00005)"/>
  <g>
    <path class="cls-2" d="M45.03081,0H18.14359a18.20372,18.20372,0,0,0-1.39984,36.34869A1.29676,1.29676,0,0,0,18.1395,35.1591q.00389-.04889.00409-.098a1.26971,1.26971,0,0,0-1.15625-1.27655A15.62844,15.62844,0,0,1,18.14261,2.57518H45.03079a15.62608,15.62608,0,0,1,0,31.252H36.92093a1.26923,1.26923,0,0,0-.94336.35449L25.63867,44.94136V35.13985a1.27512,1.27512,0,0,0-2.55023-.00244l-.025,13.00806a1.26812,1.26812,0,0,0,.82031,1.18848,1.38292,1.38292,0,0,0,.54883.09961,1.22508,1.22508,0,0,0,.875-.35059L37.48679,36.4023h7.54395A18.20126,18.20126,0,0,0,45.03073,0Z" transform="translate(-0.00007 0.00005)"/>
    <path class="cls-2" d="M31.627,24.47459l-.16455.01172c-.01855-.001-.0376-.002-.05615-.002a1.60271,1.60271,0,0,0-1.07959.43262,1.49934,1.49934,0,0,0-.45947,1.08691,1.41324,1.41324,0,0,0,.46875,1.13574,1.64278,1.64278,0,0,0,2.16553-.00977,1.541,1.541,0,0,0-.87451-2.65527Z" transform="translate(-0.00007 0.00005)"/>
    <path class="cls-2" d="M33.98392,19.26613c.96973-.87451,1.64648-1.49268,2.02979-1.876a5.246,5.246,0,0,0,.93506-1.26465,3.4002,3.4002,0,0,0,.37549-1.66455,4.08439,4.08439,0,0,0-.6875-2.27l-.001-.00146a4.69431,4.69431,0,0,0-1.93457-1.64209,7.37993,7.37993,0,0,0-6.124.11133,5.35792,5.35792,0,0,0-2.03711,1.855,4.088,4.088,0,0,0-.68994,2.17578,1.19263,1.19263,0,0,0,.38184.84961,1.33129,1.33129,0,0,0,.95166.394c.65137-.00049,1.07568-.38184,1.30957-1.167a5.41368,5.41368,0,0,1,1.11621-2.062,2.86046,2.86046,0,0,1,2.20654-.73193,2.937,2.937,0,0,1,1.92627.71729,2.38652,2.38652,0,0,1,.79541,1.80225,2.04366,2.04366,0,0,1-.26318,1.02686,3.33805,3.33805,0,0,1-.625.81006c-.21045.21045-.583.56592-1.12158,1.0249-.47168.415-.93213.85645-1.36523,1.30859a3.97,3.97,0,0,0-1.06494,2.85547,1.347,1.347,0,0,0,.34326,1.03662,1.27411,1.27411,0,0,0,.88672.33643,1.07457,1.07457,0,0,0,1.17267-.96655q.00288-.02985.00409-.05981l.12354-.53418c.02979-.13037.05322-.23193.07178-.30713a2.533,2.533,0,0,1,.208-.50635,2.22138,2.22138,0,0,1,.415-.58984C33.53178,19.69872,33.74808,19.48241,33.98392,19.26613Z" transform="translate(-0.00007 0.00005)"/>
  </g>
</svg>
