<svg id="Слой_1" data-name="Слой 1" xmlns="http://www.w3.org/2000/svg" viewBox="0 0 66.33077 51.09375">
  <defs>
    <style>
      .cls-1 {
        fill: #584286;
      }

      .cls-2 {
        fill: #fff;
      }
    </style>
  </defs>
  <title>ТЕМА 2 мы берем на себя</title>
  <path class="cls-1" d="M42.59521,48.91954,25.24089,36.47667c-3.91914-2.81-4.12054-8.91458-.42995-13.03165l7.4848-8.34964a8.91668,8.91668,0,0,1,9.60246-2.79617l19.73306,7.4404C66.556,21.59654,67.8759,28.04613,64.317,32.86375L54.45345,46.21581C51.45349,50.27678,46.1687,51.48174,42.59521,48.91954Z" transform="translate(0 0.00001)"/>
  <path class="cls-2" d="M37.26416,0H12.31689a1.12061,1.12061,0,0,0,0,2.24121H37.26367a1.01838,1.01838,0,0,1,1.01709,1.01758V41.64159a1.018,1.018,0,0,1-1.0166,1.01758H34.32764V22.94435a1.12061,1.12061,0,0,0-2.24121-.00638V48.8535H2.24121V7.58983H21.56157v7.88477a2.64319,2.64319,0,0,0,2.64014,2.64063h7.88477v.02246h1.0981a1.13556,1.13556,0,0,0,.81445-1.93457L23.47314,5.67674a1.11862,1.11862,0,0,0-.791-.32812H2.30176A2.30509,2.30509,0,0,0,0,7.65135V48.792a2.30487,2.30487,0,0,0,2.30176,2.30176H32.02588A2.30487,2.30487,0,0,0,34.32764,48.792V44.89934h2.93652A3.2618,3.2618,0,0,0,40.522,41.64153V3.25874A3.262,3.262,0,0,0,37.26416,0ZM23.80273,15.47459V9.17479L30.50146,15.874h-6.2998a.39948.39948,0,0,1-.39893-.39944Z" transform="translate(0 0.00001)"/>
</svg>
