<svg id="Слой_1" data-name="Слой 1" xmlns="http://www.w3.org/2000/svg" viewBox="0 0 33.55667 33.55667">
  <defs>
    <style>
      .cls-1 {
        fill: #fff;
      }
    </style>
  </defs>
  <title>404</title>
  <path class="cls-1" d="M-25.97,0A16.76889,16.76889,0,0,0-42.7483,16.77833,16.76885,16.76885,0,0,0-25.97,33.55667,16.76889,16.76889,0,0,0-9.19163,16.77833,16.76885,16.76885,0,0,0-25.97,0Zm0,30.93505A14.14875,14.14875,0,0,1-40.12668,16.77833,14.14871,14.14871,0,0,1-25.97,2.62161,14.14875,14.14875,0,0,1-11.81325,16.77833,14.14871,14.14871,0,0,1-25.97,30.93505Z" transform="translate(42.7483 0)"/>
  <path class="cls-1" d="M-20.22948,11.03792a1.31078,1.31078,0,0,0-1.85374,0L-25.97,14.92459l-3.88674-3.88667a1.31072,1.31072,0,0,0-1.85374,0,1.31078,1.31078,0,0,0,.00007,1.85374l3.88667,3.88667L-31.71038,20.665a1.31072,1.31072,0,0,0-.00007,1.85374,1.31078,1.31078,0,0,0,1.85374,0L-25.97,18.63208l3.88674,3.88667a1.31078,1.31078,0,0,0,1.85374,0,1.31072,1.31072,0,0,0-.00007-1.85374l-3.88667-3.88667,3.88667-3.88667A1.31084,1.31084,0,0,0-20.22948,11.03792Z" transform="translate(42.7483 0)"/>
</svg>
