<svg id="Слой_1" data-name="Слой 1" xmlns="http://www.w3.org/2000/svg" viewBox="0 0 30.42969 30.43018">
  <defs>
    <style>
      .cls-1 {
        fill: #fff;
      }
    </style>
  </defs>
  <title>клубные карты</title>
  <path class="cls-1" d="M35.26367,16.43835a2.92853,2.92853,0,0,0-2.81641-2.72168h-2.4375v-6.064A2.81836,2.81836,0,0,0,27.2666,4.83484H7.65234A2.85532,2.85532,0,0,0,4.835,7.65271V23.5658A2.81793,2.81793,0,0,0,7.65234,26.309h2.36377v6.13867A2.8549,2.8549,0,0,0,12.8335,35.265H32.44727a2.8549,2.8549,0,0,0,2.81738-2.81738Zm-2.30273,5.43018v10.5791a.60268.60268,0,0,1-.58789.58691l-19.48633.00391a.73542.73542,0,0,1-.64062-.59082V21.86853ZM27.7793,13.71667H12.8335a2.8549,2.8549,0,0,0-2.81738,2.81738v7.54443H7.65234a.5995.5995,0,0,1-.58691-.5127V7.65271a.60258.60258,0,0,1,.58691-.5874H27.2666a.59963.59963,0,0,1,.5127.5874Zm5.25586,2.74365v3.17773H12.24609V16.46033a.60267.60267,0,0,1,.5874-.5874H32.44727A.60277.60277,0,0,1,33.03516,16.46033Z" transform="translate(-4.83496 -4.83484)"/>
</svg>
