<svg id="Слой_1" data-name="Слой 1" xmlns="http://www.w3.org/2000/svg" viewBox="0 0 31.66863 31.66863">
  <defs>
    <style>
      .cls-1 {
        fill: #fff;
      }
    </style>
  </defs>
  <title>о клубе</title>
  <g>
    <path class="cls-1" d="M9.999-5.83334A15.83432,15.83432,0,1,0,25.83333,10.001,15.85241,15.85241,0,0,0,9.999-5.83334Zm0,28.78947A12.9552,12.9552,0,1,1,22.95418,10.001,12.96965,12.96965,0,0,1,9.999,22.95614Zm0,0" transform="translate(5.83529 5.83334)"/>
    <path class="cls-1" d="M9.99871.88439a1.91928,1.91928,0,1,0,1.919,1.9199,1.92172,1.92172,0,0,0-1.919-1.9199Zm0,0" transform="translate(5.83529 5.83334)"/>
    <path class="cls-1" d="M9.999,7.6018A1.43942,1.43942,0,0,0,8.55963,9.04119v8.637a1.43939,1.43939,0,0,0,2.87877,0v-8.637A1.43942,1.43942,0,0,0,9.999,7.6018Zm0,0" transform="translate(5.83529 5.83334)"/>
  </g>
</svg>
